<?xml version="1.0" encoding="UTF-8" standalone="no"?>
<svg width="55px" height="50px" viewBox="0 0 55 50" version="1.1" xmlns="http://www.w3.org/2000/svg" xmlns:xlink="http://www.w3.org/1999/xlink">
    <!-- Generator: Sketch 45.2 (43514) - http://www.bohemiancoding.com/sketch -->
    <title>Mad face Copy</title>
    <desc>Created with Sketch.</desc>
    <defs></defs>
    <g id="Page-1" stroke="none" stroke-width="1" fill="none" fill-rule="evenodd">
        <g id="inhuman-index" transform="translate(-616.000000, -482.000000)">
            <g id="Mad-face-Copy" transform="translate(616.000000, 482.000000)">
                <g id="Group-3" transform="translate(0.000000, 0.030021)" fill="#FF473E">
                    <path d="M27.1522558,0.0815930013 C13.5535339,0.0815930013 2.53027586,11.106525 2.53027586,24.7037961 C2.53027586,25.0191864 2.54232899,25.3315634 2.55404732,25.6441636 C1.11581861,25.8284202 1.11603066e-05,27.043666 1.11603066e-05,28.5322277 C1.11603066e-05,30.1477937 1.30978474,31.4576789 2.92535072,31.4576789 L3.47566543,31.4576789 C6.41205369,41.772369 15.896417,49.3285662 27.1522558,49.3285662 C40.7510893,49.3285662 51.7744589,38.3038573 51.7744589,24.7037961 C51.7744589,11.106525 40.7510893,0.0815930013 27.1522558,0.0815930013" id="Fill-1"></path>
                </g>
                <path d="M17.6149926,18.5059534 L17.6149926,23.1125931 C17.6149926,24.6059537 16.4044342,25.8165122 14.9110735,25.8165122 C13.4178245,25.8165122 12.2072661,24.6059537 12.2072661,23.1125931 L12.2072661,17.0509842 L17.6149926,18.5059534 Z" id="Fill-4" fill="#2B3B47"></path>
                <path d="M42.1878784,17.050973 L42.1878784,23.112582 C42.1878784,24.6059426 40.9773199,25.816501 39.4839593,25.816501 C37.9907103,25.816501 36.7801518,24.6059426 36.7801518,23.112582 L36.7801518,18.5059422 L42.1878784,17.050973 Z" id="Fill-6" fill="#2B3B47"></path>
                <path d="M17.4742835,19.4183419 C17.3895768,19.4183419 17.3033076,19.406512 17.2178196,19.3814013 L11.4703734,17.6994315 C10.9869089,17.5580304 10.7094637,17.0513525 10.8509763,16.567888 C10.9923774,16.0845351 11.4987205,15.8059739 11.9825198,15.9486026 L17.7300777,17.6305724 C18.2134306,17.7720851 18.4908758,18.2786514 18.3493631,18.7621159 C18.2329611,19.1600924 17.8689119,19.4183419 17.4742835,19.4183419" id="Fill-8" fill="#D32A2A"></path>
                <path d="M36.7799286,19.4183419 C36.3960141,19.4183419 36.0385495,19.1743776 35.9132192,18.7897935 C35.7563053,18.3111279 36.0172333,17.7959682 36.496122,17.6390542 L42.5395396,15.6611131 C43.0199908,15.5046456 43.5336997,15.7657968 43.689944,16.2444623 C43.8468579,16.7231279 43.58593,17.238176 43.1069296,17.3952015 L37.0636236,19.3730311 C36.9692074,19.4036103 36.873452,19.4183419 36.7799286,19.4183419" id="Fill-10" fill="#D32A2A"></path>
                <path d="M33.8123138,35.5492928 C33.5449129,33.222034 31.698217,30.0188029 27.4443545,30.0188029 C23.0092487,30.0188029 21.1913463,33.5007069 21.0512845,35.8410232 C21.0140091,36.4644379 21.3051815,37.0599519 21.8083997,37.429916 C22.3117295,37.8005498 22.9778882,37.8853681 23.5611258,37.6633896 C23.573737,37.6590371 24.8364141,37.1896346 27.2096533,37.1896346 C29.6922635,37.1896346 31.4342757,37.7025623 31.4645201,37.711379 C31.6407414,37.7651716 31.8212035,37.790952 32.0011077,37.790952 L32.0157277,37.790952 C33.0327664,37.790952 33.8565086,36.9670981 33.8565086,35.9509522 C33.8565086,35.8131224 33.8411074,35.6781943 33.8123138,35.5492928" id="Fill-12" fill="#2B3B47"></path>
                <path d="M51.7465135,25.8378619 C51.762696,25.4715806 51.7744143,25.1040717 51.7744143,24.7337727 C51.7744143,18.1552184 49.1910265,12.185124 44.9850418,7.76843271 C47.364196,11.6221982 48.7388109,16.1616529 48.7388109,21.0241984 C48.7388109,34.9953398 37.412439,46.3189216 23.4414092,46.3189216 C18.5800913,46.3189216 14.0406366,44.9470968 10.1840811,42.5666034 C14.6012188,46.7724765 20.5738801,49.3585427 27.1522112,49.3585427 C38.3497931,49.3585427 47.794649,41.8810257 50.7833791,31.6483639 L51.3498762,31.6483639 C52.9655538,31.6483639 54.2752158,30.3387019 54.2752158,28.7232475 C54.2752158,27.2433909 53.1725775,26.0330556 51.7465135,25.8378619" id="Fill-14" fill="#D32A2A"></path>
            </g>
        </g>
    </g>
</svg>