<?xml version="1.0" encoding="UTF-8" standalone="no"?>
<svg width="55px" height="50px" viewBox="0 0 55 50" version="1.1" xmlns="http://www.w3.org/2000/svg" xmlns:xlink="http://www.w3.org/1999/xlink">
    <!-- Generator: Sketch 45.2 (43514) - http://www.bohemiancoding.com/sketch -->
    <title>Page 1 Copy</title>
    <desc>Created with Sketch.</desc>
    <defs>
        <polygon id="path-1" points="3.3849415e-05 0.0867557996 52.3287471 0.0867557996 52.3287471 49.9297362 3.3849415e-05 49.9297362"></polygon>
    </defs>
    <g id="Page-1" stroke="none" stroke-width="1" fill="none" fill-rule="evenodd">
        <g id="inhuman-index" transform="translate(-402.000000, -497.000000)">
            <g id="Page-1-Copy" transform="translate(402.000000, 497.000000)">
                <g id="Group-3" transform="translate(0.000000, 0.026207)">
                    <mask id="mask-2" fill="white">
                        <use xlink:href="#path-1"></use>
                    </mask>
                    <g id="Clip-2"></g>
                    <path d="M27.4362258,0.0867219106 C13.6881731,0.0867219106 2.54393022,11.2454607 2.54393022,25.008342 C2.54393022,25.3821375 2.55577751,25.7531089 2.57202523,26.1228377 C1.12281894,26.3138586 3.3849415e-05,27.5418825 3.3849415e-05,29.0449719 C3.3849415e-05,30.6802283 1.32422296,32.0058524 2.95757007,32.0058524 L3.54564724,32.0058524 C6.56693319,42.3626649 16.1156275,49.9297362 27.4362258,49.9297362 C41.1843914,49.9297362 52.3287471,38.7737085 52.3287471,25.008342 C52.3287471,11.2454607 41.1843914,0.0867219106 27.4362258,0.0867219106" id="Fill-1" fill="#FFD469" mask="url(#mask-2)"></path>
                </g>
                <path d="M52.3005619,26.1490904 C52.3168096,25.7793616 52.3287697,25.4082772 52.3287697,25.0345947 C52.3287697,18.3759741 49.7170617,12.3305182 45.4647853,7.86293341 C47.8701248,11.7634425 49.2597561,16.358224 49.2597561,21.2796952 C49.2597561,35.4193091 37.8088375,46.8847432 23.6846049,46.8847432 C18.7701212,46.8847432 14.1805918,45.4934874 10.282606,43.0868047 C14.747231,47.3413407 20.7856282,49.9559888 27.4362484,49.9559888 C38.7569596,49.9559888 48.3057667,42.3889176 51.3270527,32.0321051 L51.915017,32.0321051 C53.548477,32.0321051 54.8726661,30.706481 54.8726661,29.0711116 C54.8726661,27.5681351 53.7497681,26.3399983 52.3005619,26.1490904" id="Fill-4" fill="#FFB636"></path>
                <path d="M12.0224096,15.4189569 C11.8197644,15.4189569 11.6163294,15.3476771 11.4528367,15.2022933 C11.0982077,14.8867869 11.0661636,14.3436594 11.3809631,13.9890677 C13.0964515,12.0563789 16.0072755,11.6904908 18.1529899,13.1372116 C18.5459816,13.4023364 18.6498993,13.9364268 18.3850841,14.3302168 C18.120156,14.7241197 17.5863507,14.8284978 17.193359,14.5625823 C15.7830796,13.6108666 13.7926211,13.8596118 12.6646458,15.1302227 C12.4948346,15.3215825 12.2593555,15.4189569 12.0224096,15.4189569" id="Fill-7" fill="#F2A74E"></path>
                <path d="M43.1378637,15.4189569 C42.9017076,15.4189569 42.6654387,15.3215825 42.4963045,15.1306746 C41.3683291,13.8592729 39.377645,13.6100759 37.9673656,14.5625823 C37.5738097,14.8274811 37.0404558,14.7241197 36.775979,14.3302168 C36.5108252,13.9367657 36.6144045,13.4026753 37.0077347,13.1372116 C39.1519823,11.6911686 42.0642731,12.0552493 43.779423,13.9886158 C44.094561,14.3436594 44.0624041,14.8867869 43.7078879,15.2018415 C43.5446208,15.3476771 43.3412987,15.4189569 43.1378637,15.4189569" id="Fill-9" fill="#F2A74E"></path>
                <path d="M18.9784982,21.3828533 C18.9628146,21.2885289 18.9393457,21.1945435 18.8987264,21.1031562 C18.2140656,19.5606426 16.8163104,18.6024881 15.2503236,18.602827 C13.684901,18.602827 12.2872587,19.5609815 11.6029363,21.1031562 C11.5624299,21.1943176 11.5390738,21.2880771 11.5233902,21.3821755 C11.310703,21.8341416 11.4051429,22.3883394 11.7973448,22.7359275 C12.0168018,22.9302243 12.2895153,23.0256783 12.5611004,23.0256783 C12.8796234,23.0256783 13.1970181,22.8944149 13.424599,22.6367457 C13.8842741,22.1164368 14.5496407,21.8181008 15.2499851,21.8181008 L15.2503236,21.8181008 C15.9510065,21.8181008 16.6170502,22.1164368 17.077515,22.6367457 C17.4991659,23.1141285 18.227831,23.1585231 18.7043179,22.7355886 C19.0966326,22.3878876 19.1906212,21.8344805 18.9784982,21.3828533" id="Fill-11" fill="#2B3B47"></path>
                <path d="M43.6369056,21.3814751 C43.6211092,21.2876026 43.5976403,21.194182 43.5573595,21.1031336 C42.8726987,19.5609589 41.4749435,18.6028044 39.9096337,18.6028044 C38.3443239,18.6028044 36.9465688,19.5609589 36.2619079,21.1031336 C36.2214015,21.194182 36.1980454,21.2877156 36.1823618,21.3815881 C35.9692233,21.8336671 36.0636632,22.387978 36.4563164,22.7359049 C36.6754349,22.9302017 36.9481484,23.0257686 37.2192822,23.0257686 C37.5381437,23.0257686 37.8555384,22.8945053 38.0827808,22.6367231 C38.5431328,22.1164142 39.2084995,21.8180782 39.9088439,21.8180782 C40.6099781,21.8177393 41.2760218,22.1164142 41.7363738,22.6367231 C42.1588145,23.1144448 42.8853358,23.1596301 43.363628,22.735566 C43.7558299,22.3875261 43.8500441,21.8333283 43.6369056,21.3814751" id="Fill-13" fill="#2B3B47"></path>
                <path d="M43.0206206,31.4954391 C42.9892535,31.4925021 42.9578864,31.4913725 42.9265192,31.4884354 C42.9267449,31.499054 41.954364,31.5054929 40.3533995,31.5089947 C37.4285844,31.5154336 32.4058954,32.8044576 27.3839962,32.7990354 C22.5369856,32.793952 17.6907649,31.4945354 14.7321004,31.4925021 C12.9826498,31.4912595 11.8931499,31.4918243 11.8536589,31.4954391 C11.790022,31.498941 11.7240157,31.5219855 11.666923,31.5669449 C11.4903419,31.695949 11.4481429,31.9538441 11.5693239,32.1398947 L11.8536589,32.5714144 C12.5034549,33.5546468 13.1515583,34.3980306 13.8012414,35.1108289 C14.4528427,35.8466717 15.099028,36.4628864 15.7505164,37.0500696 C17.0189668,38.171795 18.2908022,39.0030917 19.5639915,39.7079826 C20.2699775,39.279287 27.2700365,40.9906807 27.3014036,41.0460327 C27.3327707,40.9906807 34.5758686,39.2551128 35.3274384,39.7261697 C36.5931809,39.0217307 37.8586977,38.1942746 39.1257941,37.07334 C39.7751387,36.4842365 40.4232422,35.8663274 41.0714585,35.1231419 C41.7211416,34.4106825 42.3709375,33.5617635 43.0206206,32.5714144 L43.3051814,32.1366187 C43.3403848,32.0775389 43.3657718,32.012811 43.3708492,31.9376904 C43.3892407,31.7137972 43.2309383,31.5130614 43.0206206,31.4954391" id="Fill-15" fill="#2B3B47"></path>
                <path d="M34.1555378,40.3471288 C34.1583413,40.3460074 34.1611448,40.3451664 34.163668,40.3440449 C34.1782463,40.3541376 34.1933853,40.3603053 34.2079635,40.370398 C34.1905817,40.360866 34.1729196,40.3566608 34.1555378,40.3471288" id="Fill-17" fill="#FFFFFF"></path>
                <path d="M34.1555378,40.2475517 C34.1566661,40.2469869 34.1577944,40.246648 34.1588099,40.2461962 C34.1646772,40.2502628 34.1707701,40.252748 34.1766373,40.2569277 C34.1696417,40.2530869 34.1625334,40.2513925 34.1555378,40.2475517 M19.5640705,39.7080391 C19.5917142,39.7232891 19.6193579,39.7406855 19.6471144,39.7558226 C20.0008408,39.941986 20.3559211,40.0816087 20.7108887,40.2390795 C20.7182227,40.2423554 20.7252183,40.2443887 20.7324395,40.2475517 C20.7254439,40.2515054 20.7179971,40.2530869 20.7108887,40.2571536 C22.9178705,41.2419675 25.1248524,41.707828 27.3302546,41.7212707 C27.3659093,41.7217225 27.4017897,41.7272577 27.4372188,41.7273707 L27.4439886,41.7270318 L27.4508714,41.7273707 C27.4864132,41.7272577 27.5219551,41.7217225 27.5576098,41.7212707 C29.7628992,41.707828 31.9702196,41.2419675 34.1770886,40.2571536 L34.1769758,40.2570406 C34.5270916,40.1011513 34.8788998,39.9671769 35.2304824,39.7824819 C35.2627522,39.7646337 35.2952476,39.7443003 35.3275174,39.7262262 C34.5759475,39.2551693 20.2699436,39.2793434 19.5640705,39.7080391" id="Fill-19" fill="#FFFFFF"></path>
                <path d="M34.1555378,40.2495604 C34.1729196,40.2590923 34.1905817,40.2632976 34.2079635,40.2728295 C34.1933853,40.2624565 34.1782463,40.2562888 34.163668,40.2461962 C34.1611448,40.2473176 34.1583413,40.2481586 34.1555378,40.2495604" id="Fill-21" fill="#FFFFFF"></path>
                <path d="M41.1841432,32.0904732 C41.1841432,32.0904732 41.3352244,31.8888338 41.3283417,31.5862051 C41.3278904,31.5627088 41.327439,31.5334513 41.3268749,31.5061142 C36.1837948,31.5253179 20.0491326,31.4949308 14.0927639,31.4919938 C14.0921997,31.5239624 14.0916356,31.5586421 14.0910714,31.5862051 C14.0841887,31.8888338 14.2352699,32.0904732 14.2352699,32.0904732 C14.3353514,32.2228662 14.4602557,32.3507406 14.5994896,32.4552317 C15.1501068,32.8683384 21.4099919,34.10619 27.6420077,34.10619 C33.8739107,34.10619 40.5824134,32.8944329 41.1841432,32.0904732" id="Fill-23" fill="#FFFFFF"></path>
            </g>
        </g>
    </g>
</svg>