<?xml version="1.0" encoding="UTF-8" standalone="no"?>
<svg width="55px" height="50px" viewBox="0 0 55 50" version="1.1" xmlns="http://www.w3.org/2000/svg" xmlns:xlink="http://www.w3.org/1999/xlink">
    <!-- Generator: Sketch 45.2 (43514) - http://www.bohemiancoding.com/sketch -->
    <title>Page 1 Copy 2</title>
    <desc>Created with Sketch.</desc>
    <defs>
        <polygon id="path-1" points="3.35731185e-05 0.0859471834 51.9016128 0.0859471834 51.9016128 49.464361 3.35731185e-05 49.464361"></polygon>
    </defs>
    <g id="Page-1" stroke="none" stroke-width="1" fill="none" fill-rule="evenodd">
        <g id="inhuman-index" transform="translate(-812.000000, -482.000000)">
            <g id="Page-1-Copy-2" transform="translate(812.000000, 482.000000)">
                <g id="Group-3" transform="translate(0.000000, 0.025963)">
                    <mask id="mask-2" fill="white">
                        <use xlink:href="#path-1"></use>
                    </mask>
                    <g id="Clip-2"></g>
                    <path d="M27.2122771,0.0859136103 C13.5764431,0.0859136103 2.52316534,11.1406463 2.52316534,24.7752492 C2.52316534,25.1455607 2.53491593,25.5130745 2.55103103,25.8793572 C1.11365391,26.0685977 3.35731185e-05,27.2851756 3.35731185e-05,28.7742553 C3.35731185e-05,30.3942702 1.31341397,31.7075387 2.93342885,31.7075387 L3.51670583,31.7075387 C6.51333048,41.9678194 15.9840834,49.464361 27.2122771,49.464361 C40.8482231,49.464361 51.9016128,38.4123142 51.9016128,24.7752492 C51.9016128,11.1406463 40.8482231,0.0859136103 27.2122771,0.0859136103" id="Fill-1" fill="#00BEEA" mask="url(#mask-2)"></path>
                </g>
                <path d="M33.5650498,35.3645242 C32.9281677,34.6350922 31.0674336,32.9969478 27.2233115,32.9969478 C22.5607887,32.9969478 20.8165533,35.4066025 20.6329083,35.6815663 C20.1795593,36.3605267 20.1906385,37.2466332 20.6542832,37.9191028 C21.1180399,38.5907889 21.949758,38.9115241 22.7455528,38.7283268 C22.7599892,38.7253052 24.2238891,38.3965125 26.969163,38.3965125 C29.7734137,38.3965125 31.7441557,38.739294 31.8011181,38.7489183 C31.9201908,38.7704051 32.0390396,38.7814843 32.1565455,38.7814843 L32.1750108,38.7814843 C33.2738589,38.7792461 34.1643299,37.8881036 34.1643299,36.788472 C34.1643299,36.2304868 33.9352494,35.7258828 33.5650498,35.3645242" id="Fill-4" fill="#2B3B47"></path>
                <path d="M17.6456842,20.7765565 L17.6456842,26.8549696 C17.6456842,28.3524426 16.4317921,27.9880624 14.9343191,27.9880624 C13.4368461,27.9880624 12.2229541,28.3524426 12.2229541,26.8549696 L12.2229541,20.7765565 C12.2229541,19.2790835 13.4368461,18.0650796 14.9343191,18.0650796 C16.4317921,18.0650796 17.6456842,19.2790835 17.6456842,20.7765565 Z" id="Fill-6" fill="#2B3B47"></path>
                <path d="M42.2237361,20.7765565 L42.2237361,26.8549696 C42.2237361,28.3524426 41.0097321,27.9880624 39.5122591,27.9880624 C38.0147861,27.9880624 36.8008941,28.3524426 36.8008941,26.8549696 L36.8008941,20.7765565 C36.8008941,19.2790835 38.0147861,18.0650796 39.5122591,18.0650796 C41.0097321,18.0650796 42.2237361,19.2790835 42.2237361,20.7765565 Z" id="Fill-8" fill="#2B3B47"></path>
                <path d="M14.3129702,16.5621118 C13.0346178,16.5621118 11.7569368,16.1017124 10.7818615,15.179235 C10.4363941,14.8525686 10.4212862,14.3079007 10.7481765,13.9625452 C11.0756263,13.6174135 11.6201823,13.6021937 11.9649782,13.9288602 C13.2677271,15.1606579 15.3845123,15.1540552 16.6842396,13.9118498 C17.0282521,13.5837285 17.5724724,13.5963744 17.901377,13.9392678 C18.2298341,14.2831685 18.2176358,14.8277245 17.873959,15.1561815 C16.8934001,16.0933191 15.6028494,16.5621118 14.3129702,16.5621118" id="Fill-10" fill="#009AAF"></path>
                <path d="M40.3737789,16.8443946 C38.9284562,16.8443946 37.487386,16.2539553 36.4854523,15.1122455 C36.1721032,14.7550275 36.2074668,14.211143 36.5652444,13.8977938 C36.9221266,13.5855638 37.4653397,13.6202561 37.7800317,13.9772502 C38.9638199,15.3268896 41.0728832,15.5198231 42.480604,14.4050837 C42.8544967,14.109864 43.3946881,14.1737649 43.6894601,14.5451955 C43.984344,14.917969 43.9222337,15.4592796 43.5491245,15.7543873 C42.6246327,16.4871766 41.4978069,16.8443946 40.3737789,16.8443946" id="Fill-12" fill="#009AAF"></path>
                <path d="M12.2365512,28.8491345 C11.7610439,28.8491345 11.3756245,28.4633794 11.3756245,27.9883198 C11.3756245,27.5131482 11.7610439,27.1273931 12.2365512,27.1273931 L17.6319751,27.1273931 C18.1075943,27.1273931 18.4929018,27.5131482 18.4929018,27.9883198 C18.4929018,28.4633794 18.1075943,28.8491345 17.6319751,28.8491345 L12.2365512,28.8491345 Z" id="Fill-14" fill="#009AAF"></path>
                <path d="M42.2101278,28.8491345 L36.8142562,28.8491345 C36.3390847,28.8491345 35.9533295,28.4633794 35.9533295,27.9883198 C35.9533295,27.5131482 36.3390847,27.1273931 36.8142562,27.1273931 L42.2101278,27.1273931 C42.6851874,27.1273931 43.0709426,27.5131482 43.0709426,27.9883198 C43.0709426,28.4633794 42.6851874,28.8491345 42.2101278,28.8491345" id="Fill-16" fill="#009AAF"></path>
                <path d="M15.2629552,35.94422 C15.7720356,37.6229878 14.8241545,39.3966557 13.144939,39.9057361 C11.4661712,40.415376 9.69250336,39.4669354 9.18286342,37.78772 C8.99339912,37.1624766 9.00570927,36.5253707 9.18286342,35.94422 L11.2977461,30.6224331 C11.4524062,30.1115621 11.9927096,29.823169 12.5036925,29.9779411 C12.8223014,30.0747436 13.0564179,30.3272135 13.1482964,30.6224331 L15.2629552,35.94422 Z" id="Fill-18" fill="#FFFFFF"></path>
                <g id="Group-22" transform="translate(9.900000, 7.725963)" fill="#00ADC9">
                    <path d="M42.0016352,17.075294 C42.0016352,10.4787358 39.4112452,4.48962715 35.1936782,0.0636829379 C37.579384,3.92783697 38.9576724,8.47979229 38.9576724,13.3553925 C38.9576724,27.3632166 27.6002221,38.721786 13.5912789,38.721786 C8.71690973,38.721786 4.1648425,37.3434976 0.298674078,34.9592466 C4.7268565,39.1741278 10.7159651,41.7644058 17.3122995,41.7644058 C28.5406052,41.7644058 38.01147,34.2678642 41.0080947,24.0075834 L41.5912597,24.0075834 C43.2113865,24.0075834 44.5247669,22.6943149 44.5247669,21.0741881 C44.5247669,19.5852203 43.4110347,18.3685305 41.9736576,18.179402 C41.9897727,17.8131192 42.0016352,17.4454936 42.0016352,17.075294 Z" id="Fill-20"></path>
                </g>
            </g>
        </g>
    </g>
</svg>