<?xml version="1.0" encoding="UTF-8" standalone="no"?>
<svg width="44px" height="47px" viewBox="0 0 44 47" version="1.1" xmlns="http://www.w3.org/2000/svg" xmlns:xlink="http://www.w3.org/1999/xlink">
    <!-- Generator: Sketch 45.2 (43514) - http://www.bohemiancoding.com/sketch -->
    <title>icon-github</title>
    <desc>Created with Sketch.</desc>
    <defs></defs>
    <g id="Page-1" stroke="none" stroke-width="1" fill="none" fill-rule="evenodd" fill-opacity="0.864073822">
        <g id="inhuman-menu" transform="translate(-62.000000, -717.000000)" fill="#000000">
            <path d="M101.707971,717 L66.1077212,717 C63.8390894,717 62,718.953381 62,721.362999 L62,759.175659 C62,761.585277 63.8390894,763.538659 66.1077212,763.538659 L77.5910839,763.538659 C78.0891539,763.426916 78.4418742,762.954544 78.4308847,762.413974 L78.4308847,758.380624 C72.2236616,759.815566 70.9091908,755.200482 70.9091908,755.200482 C70.4980984,753.76582 69.6174212,752.534659 68.4263016,751.729474 C66.3998258,750.25575 68.5723539,750.294532 68.5723539,750.294532 C70.0039277,750.506916 71.2634272,751.408302 71.9863266,752.737812 C72.6008866,753.916158 73.6338508,754.784283 74.854844,755.148573 C76.0758372,755.512863 77.383306,755.34302 78.4856543,754.676922 C78.5908474,753.476852 79.0958018,752.356049 79.9096643,751.516172 C74.9621423,750.915047 69.7590289,748.878981 69.7590289,739.881507 C69.6923028,737.525963 70.4835687,735.233855 71.96807,733.482442 C71.2884906,731.44105 71.3668318,729.201319 72.1871485,727.219114 C72.1871485,727.219114 74.0128023,726.579207 78.3213454,729.643002 C81.9782901,728.578777 85.8374023,728.578777 89.494347,729.643002 C93.7481205,726.579207 95.6285439,727.219114 95.6285439,727.219114 C96.4488606,729.201319 96.5272018,731.44105 95.8476224,733.482442 C97.3580961,735.208013 98.1822804,737.486842 98.1479462,739.842725 C98.1479462,748.937154 92.9265762,750.95383 87.9607977,751.47739 C89.0175791,752.669292 89.5368964,754.288706 89.3848078,755.917953 L89.3848078,762.413974 C89.3610853,762.939549 89.6894783,763.410025 90.1698389,763.538659 L101.653202,763.538659 C102.752096,763.554222 103.811036,763.101431 104.59327,762.281517 C105.375503,761.461602 105.81579,760.342949 105.815692,759.175659 L105.815692,721.362999 C105.815692,720.20586 105.382916,719.096114 104.612569,718.277893 C103.842222,717.459672 102.797407,717 101.707971,717 Z" id="icon-github"></path>
        </g>
    </g>
</svg>