<?xml version="1.0" encoding="UTF-8"?>
<svg width="857px" height="93px" viewBox="0 0 857 93" version="1.1" xmlns="http://www.w3.org/2000/svg" xmlns:xlink="http://www.w3.org/1999/xlink">
    <!-- Generator: Sketch 46 (44423) - http://www.bohemiancoding.com/sketch -->
    <title>INHUMAN ADS</title>
    <desc>Created with Sketch.</desc>
    <defs></defs>
    <g id="Page-1" stroke="none" stroke-width="1" fill="none" fill-rule="evenodd">
        <path d="M0.912,90 L0.912,3.6 L22.08,3.6 L22.08,90 L0.912,90 Z M6.24,85.968 L16.752,85.968 L16.752,55.152 L6.24,55.152 L6.24,85.968 Z M35.904,90 L35.904,3.6 L58.224,3.6 L91.776,54.864 L91.776,3.6 L112.8,3.6 L112.8,90 L90.768,90 L57.072,38.592 L57.072,90 L35.904,90 Z M97.104,60.192 L107.472,76.32 L107.472,7.632 L97.104,7.632 L97.104,60.192 Z M41.232,85.968 L51.744,85.968 L51.744,33.264 L41.232,16.704 L41.232,85.968 Z M126.624,90 L126.624,3.6 L147.792,3.6 L147.792,37.584 L181.632,37.584 L181.632,3.6 L202.656,3.6 L202.656,90 L181.632,90 L181.632,55.872 L147.792,55.872 L147.792,90 L126.624,90 Z M186.96,85.968 L197.328,85.968 L197.328,55.872 L186.96,55.872 L186.96,85.968 Z M131.952,85.968 L142.464,85.968 L142.464,55.872 L131.952,55.872 L131.952,85.968 Z M216.48,60.912 L216.48,3.6 L237.504,3.6 L237.504,57.744 C237.504,69.264 242.976,73.296 250.32,73.296 C258.384,73.296 263.424,69.264 263.424,57.744 L263.424,3.6 L284.592,3.6 L284.592,60.912 C284.592,81.36 269.328,92.88 250.32,92.88 C230.592,92.88 216.48,80.784 216.48,60.912 Z M268.608,38.304 L279.264,38.304 L279.264,7.632 L268.608,7.632 L268.608,38.304 Z M221.808,38.304 L232.32,38.304 L232.32,7.632 L221.808,7.632 L221.808,38.304 Z M298.416,90 L298.416,3.6 L318.144,3.6 L340.176,50.256 L362.352,3.6 L381.792,3.6 L381.792,90 L360.768,90 L360.768,51.552 L341.904,92.88 L338.448,92.88 L319.584,51.264 L319.584,90 L298.416,90 Z M303.744,85.968 L314.256,85.968 L314.256,38.736 L303.744,15.12 L303.744,85.968 Z M347.952,67.536 L360.768,40.32 L360.768,18.432 L343.2,56.016 L347.952,67.536 Z M391.008,90 L433.056,0.72 L436.8,0.72 L479.136,90 L456.384,90 L452.064,81.072 L417.936,81.072 L413.76,90 L391.008,90 Z M424.56,65.952 L444.864,65.952 L434.928,44.064 L434.64,44.064 L424.56,65.952 Z M450.624,65.952 L459.84,85.968 L471.792,85.968 L462.288,65.952 L450.624,65.952 Z M398.208,85.968 L410.016,85.968 L419.376,65.952 L407.712,65.952 L398.208,85.968 Z M488.352,90 L488.352,3.6 L510.672,3.6 L544.224,54.864 L544.224,3.6 L565.248,3.6 L565.248,90 L543.216,90 L509.52,38.592 L509.52,90 L488.352,90 Z M549.552,60.192 L559.92,76.32 L559.92,7.632 L549.552,7.632 L549.552,60.192 Z M493.68,85.968 L504.192,85.968 L504.192,33.264 L493.68,16.704 L493.68,85.968 Z M611.184,90 L653.232,0.72 L656.976,0.72 L699.312,90 L676.56,90 L672.24,81.072 L638.112,81.072 L633.936,90 L611.184,90 Z M644.736,65.952 L665.04,65.952 L655.104,44.064 L654.816,44.064 L644.736,65.952 Z M670.8,65.952 L680.016,85.968 L691.968,85.968 L682.464,65.952 L670.8,65.952 Z M618.384,85.968 L630.192,85.968 L639.552,65.952 L627.888,65.952 L618.384,85.968 Z M708.528,90 L708.528,3.6 L738.624,3.6 C764.112,3.6 783.84,22.32 783.84,46.656 C783.84,69.696 766.272,90 738.624,90 L708.528,90 Z M713.856,85.968 L724.368,85.968 L724.368,7.632 L713.856,7.632 L713.856,85.968 Z M729.696,70.704 L738.192,70.704 C751.728,70.704 762.096,61.2 762.096,46.656 C762.096,33.264 753.024,22.752 738.192,22.752 L729.696,22.752 L729.696,70.704 Z M797.808,64.656 L818.4,64.656 C818.4,69.696 822.432,73.728 827.328,73.728 C832.656,73.728 835.968,70.704 835.968,66.24 C835.968,59.76 827.472,57.888 820.416,55.44 C805.872,50.256 797.808,43.488 797.808,28.656 C797.808,13.392 810.912,0.72 827.184,0.72 C846.336,0.72 855.408,12.96 856.56,28.944 L836.688,28.944 C836.688,24.048 833.664,20.016 827.76,20.016 C823.152,20.016 818.688,22.752 818.688,28.368 C818.688,34.848 826.608,36 833.952,38.16 C849.36,42.768 856.56,51.408 856.56,64.944 C856.56,80.208 843.6,92.88 827.328,92.88 C808.464,92.88 797.808,80.208 797.808,64.656 Z M840.576,24.912 L851.376,24.912 C850.512,16.416 844.176,4.752 827.328,4.752 L827.328,15.984 C836.256,15.984 839.28,21.312 840.576,24.912 Z M802.848,68.688 C803.136,79.488 813.648,88.848 827.328,88.848 L827.328,77.76 C819.984,77.616 815.376,73.44 814.08,68.688 L802.848,68.688 Z" id="INHUMAN-ADS" fill="#000000"></path>
    </g>
</svg>