<svg id="Layer_1" xmlns="http://www.w3.org/2000/svg" viewBox="0 0 42 42"><style>.st0{fill:#00bbf1}.st1{fill:#fff}</style><path id="path-1_1_" class="st0" d="M0 21C0 9.4 9.4 0 21 0s21 9.4 21 21-9.4 21-21 21S0 32.6 0 21z"/><path class="st1" d="M25 12c.1-.2.3-.5.3-.8-.9.6-1.7 1.4-2.3 2.3-1.2 1.7-1.9 3.6-2.7 5.4-.7-.7-1.5-1.5-2.4-2-2.6-1.4-5.3-2.6-8.1-3.6-.1 1.8 1.2 3.2 2.7 4-.6 0-1.3.1-1.9.2.1.7.5 1.4 1 1.9.7.7 1.6 1 2.5 1.3-.8.1-1.6.3-2.1.9.7 1.4 2.4 2.1 3.9 1.9-.5.2-1 .5-1.2 1-.2.4-.1.9.2 1.2.5.5 1.2.6 1.9.6-1.1 1.1-2.4 1.9-3.8 2.3-2.3.7-5 .2-7-1.2-.2-.1-.4-.3-.6-.5 2.6 3.6 6.9 5.8 11.3 6.1 4.6.3 9.3-1.2 12.7-4.3 1.8-1.6 3.1-3.7 3.7-6.1 1.4 0 2.8-.4 3.8-1.4-1.2.1-2.4.1-3.5-.4 1.3-.1 2.8-.7 3.4-2-1.2.5-2.5.7-3.7.4-.3-1.8-1.3-3.4-2.6-4.6-1.2-1-2.7-1.6-4.2-1.4.7-.4 1.6-.4 2.3-.8.2-.1.5-.3.4-.6-.1-.2-.3-.2-.5-.2-.7 0-1.3.3-1.9.5.4-.2.9-.5 1-1-1.1 0-1.9.4-2.6.9z"/></svg>