<?xml version="1.0" encoding="UTF-8" standalone="no"?>
<svg width="61px" height="27px" viewBox="0 0 61 27" version="1.1" xmlns="http://www.w3.org/2000/svg" xmlns:xlink="http://www.w3.org/1999/xlink">
    <!-- Generator: Sketch 45.2 (43514) - http://www.bohemiancoding.com/sketch -->
    <title>Page 1 Copy 3</title>
    <desc>Created with Sketch.</desc>
    <defs>
        <polygon id="path-1" points="0 26.0833637 0 0.0112048516 60.9311208 0.0112048516 60.9311208 26.0833637"></polygon>
    </defs>
    <g id="Page-1" stroke="none" stroke-width="1" fill="none" fill-rule="evenodd">
        <g id="inhuman-index" transform="translate(-181.000000, -516.000000)">
            <g id="Page-1-Copy-3" transform="translate(181.000000, 516.000000)">
                <path d="M18.8422464,17.8676359 C18.1912167,17.8676359 17.6632762,17.3337217 17.6632762,16.6749009 C17.6632762,14.0674156 15.5666433,11.9460862 12.9895143,11.9460862 L2.01241905,11.9460862 C1.36138929,11.9460862 0.833569841,11.4120495 0.833569841,10.7532287 C0.833569841,10.0944079 1.36138929,9.56049368 2.01241905,9.56049368 L12.9895143,9.56049368 C16.8667663,9.56049368 20.0212167,12.7519783 20.0212167,16.6749009 C20.0212167,17.3337217 19.4932762,17.8676359 18.8422464,17.8676359" id="Fill-1" fill="#2B3B47"></path>
                <path d="M41.828051,17.8676359 C41.1769002,17.8676359 40.6492018,17.3337217 40.6492018,16.6749009 C40.6492018,12.7519783 43.8035312,9.56049368 47.6807831,9.56049368 L58.6578784,9.56049368 C59.3090292,9.56049368 59.8367276,10.0944079 59.8367276,10.7532287 C59.8367276,11.4120495 59.3090292,11.9460862 58.6578784,11.9460862 L47.6807831,11.9460862 C45.1036542,11.9460862 43.0069002,14.0674156 43.0069002,16.6749009 C43.0069002,17.3337217 42.4792018,17.8676359 41.828051,17.8676359" id="Fill-3" fill="#2B3B47"></path>
                <path d="M22.5246131,21.3470301 C27.0958611,16.7218143 27.0958611,9.2231358 22.5246131,4.59804248 C17.953244,-0.0270508384 10.5418651,-0.0270508384 5.97061706,4.59804248 L22.5246131,21.3470301 Z" id="Fill-5" fill="#B0E9FF"></path>
                <path d="M55.0161421,21.3470301 C59.5873901,16.7218143 59.5873901,9.2231358 55.0161421,4.59804248 C50.444773,-0.0270508384 43.033273,-0.0270508384 38.462146,4.59804248 L55.0161421,21.3470301 Z" id="Fill-7" fill="#B0E9FF"></path>
                <circle id="Oval-2" fill="#B0E9FF" cx="47" cy="13" r="11"></circle>
                <circle id="Oval-3" fill="#B0E9FF" cx="14" cy="13" r="11"></circle>
                <g id="Group-11" transform="translate(0.000000, 0.111314)">
                    <path d="M46.7390593,23.6978937 C40.9347399,23.6978937 36.2124442,18.9199735 36.2124442,13.0474067 C36.2124442,7.17459504 40.9347399,2.39679735 46.7390593,2.39679735 C52.5433788,2.39679735 57.2656744,7.17459504 57.2656744,13.0474067 C57.2656744,18.9199735 52.5433788,23.6978937 46.7390593,23.6978937 M14.171353,23.6978937 C8.36703353,23.6978937 3.64485893,18.9199735 3.64485893,13.0474067 C3.64485893,7.17459504 8.36703353,2.39679735 14.171353,2.39679735 C19.9756724,2.39679735 24.697847,7.17459504 24.697847,13.0474067 C24.697847,18.9199735 19.9756724,23.6978937 14.171353,23.6978937 M59.5163808,4.01899045 L56.024978,4.01899045 C56.0247359,4.01899045 56.0244938,4.01911291 56.0243728,4.01911291 C53.6784145,1.55012692 50.3830831,0.0112048516 46.7390593,0.0112048516 C41.96472,0.0112048516 37.7885196,2.65224347 35.5627458,6.56634916 C32.399097,4.72520224 28.4799681,4.69091417 25.2878768,6.46372987 C23.0477002,2.60644441 18.9038153,0.0112048516 14.171353,0.0112048516 C10.5272081,0.0112048516 7.23199782,1.55012692 4.88603948,4.01911291 C4.88591845,4.01911291 4.88567639,4.01899045 4.88543433,4.01899045 L1.41472798,4.01899045 C0.633468056,4.01899045 -1.21031746e-05,4.65993245 -1.21031746e-05,5.45039493 L-1.21031746e-05,10.8728083 C-1.21031746e-05,11.6271459 0.577067262,12.2437189 1.30870417,12.2988247 C1.29478552,12.546556 1.28691845,12.7961242 1.28691845,13.0474067 C1.28691845,20.2355333 7.06691052,26.0833637 14.171353,26.0833637 C21.2757954,26.0833637 27.0557875,20.2355333 27.0557875,13.0474067 C27.0557875,11.6676793 26.8420454,10.3376695 26.447724,9.08860411 C28.8728371,7.64728058 32.0413272,7.68891609 34.4238371,9.21289836 C34.0540851,10.4257164 33.8547458,11.7133559 33.8547458,13.0474067 C33.8547458,20.2355333 39.6346169,26.0833637 46.7390593,26.0833637 C53.8435018,26.0833637 59.6233728,20.2355333 59.6233728,13.0474067 C59.6233728,12.7964915 59.6156268,12.5472908 59.6017081,12.2998044 C60.3430276,12.254985 60.9311208,11.6342484 60.9311208,10.8728083 L60.9311208,5.45039493 C60.9311208,4.65993245 60.2976407,4.01899045 59.5163808,4.01899045" id="Fill-9" fill="#2B3B47"></path>
                    <mask id="mask-2" fill="white">
                        <use xlink:href="#path-1"></use>
                    </mask>
                    <g id="Clip-10"></g>
                </g>
            </g>
        </g>
    </g>
</svg>