<?xml version="1.0" encoding="UTF-8" standalone="no"?>
<svg width="46px" height="54px" viewBox="0 0 46 54" version="1.1" xmlns="http://www.w3.org/2000/svg" xmlns:xlink="http://www.w3.org/1999/xlink">
    <!-- Generator: Sketch 45.2 (43514) - http://www.bohemiancoding.com/sketch -->
    <title>Page 1 Copy 4</title>
    <desc>Created with Sketch.</desc>
    <defs>
        <polygon id="path-1" points="2.08333333e-05 0.00837278381 45.7690833 0.00837278381 45.7690833 45.9942028 2.08333333e-05 45.9942028"></polygon>
        <polygon id="path-3" points="45.7691458 36.9449086 8.33333333e-05 36.9449086 8.33333333e-05 0.0585147472 45.7691458 0.0585147472 45.7691458 36.9449086"></polygon>
    </defs>
    <g id="Page-1" stroke="none" stroke-width="1" fill="none" fill-rule="evenodd">
        <g id="inhuman-index" transform="translate(-1008.000000, -474.000000)">
            <g id="Page-1-Copy-4" transform="translate(1008.000000, 474.000000)">
                <g id="Group-3" transform="translate(0.000000, 0.096287)">
                    <mask id="mask-2" fill="white">
                        <use xlink:href="#path-1"></use>
                    </mask>
                    <g id="Clip-2"></g>
                    <path d="M45.7690833,23.0012826 C45.7690833,35.6999698 35.5233542,45.9942028 22.8846042,45.9942028 C10.24575,45.9942028 2.08333333e-05,35.6999698 2.08333333e-05,23.0012826 C2.08333333e-05,10.3025954 10.24575,0.00836231783 22.8846042,0.00836231783 C35.5233542,0.00836231783 45.7690833,10.3025954 45.7690833,23.0012826" id="Fill-1" fill="#00B89C" mask="url(#mask-2)"></path>
                </g>
                <g id="Group-6" transform="translate(0.000000, 16.737195)">
                    <mask id="mask-4" fill="white">
                        <use xlink:href="#path-3"></use>
                    </mask>
                    <g id="Clip-5"></g>
                    <path d="M22.8845625,13.435084 C22.8845625,13.435084 8.33333333e-05,-11.1691785 8.33333333e-05,6.36029103 C8.33333333e-05,23.8898652 16.1838333,36.944919 22.8845625,36.944919 C29.5851875,36.944919 45.7691458,23.8898652 45.7691458,6.36029103 C45.7691458,-11.1691785 22.8845625,13.435084 22.8845625,13.435084" id="Fill-4" fill="#00B89C" mask="url(#mask-4)"></path>
                </g>
                <path d="M14.2579583,21.9670135 C13.3085833,19.3331451 10.522125,17.8098217 7.78525,18.546522 C5.040875,19.2854202 3.38577083,22.0045864 3.870875,24.7634187 L3.80775,24.7803735 L5.80389583,32.1750069 C5.8068125,32.1862055 5.80785417,32.1899732 5.80941667,32.1956249 C6.58441667,35.1021321 9.56035417,36.8283908 12.4530625,36.0496173 C15.3457708,35.2708437 17.0638958,32.2808179 16.2888958,29.3744154 C16.2873333,29.3687637 16.27525,29.3678218 16.2723333,29.3567279 L16.283375,29.3537974 L14.3097292,21.9530938 L14.2579583,21.9670135 Z" id="Fill-7" fill="#007F67"></path>
                <path d="M41.8974167,24.76794 C42.3858542,22.0100496 40.7275208,19.2900462 37.9830417,18.551148 C35.2497083,17.8152849 32.4597083,19.337771 31.5103333,21.9715348 L31.4472083,21.9545799 L29.4734583,29.3552836 L29.4959583,29.3613538 C29.4930417,29.3724478 29.492,29.3762155 29.4905417,29.3818671 C28.7153333,32.2883744 30.4334583,35.2782955 33.315125,36.0541386 C36.2079375,36.8330168 39.1837708,35.1066534 39.9589792,32.2002508 C39.9604375,32.1944945 39.9614792,32.1906221 39.9643958,32.1796329 L41.9381458,24.7789292 L41.8974167,24.76794 Z" id="Fill-9" fill="#007F67"></path>
                <path d="M21.8613646,36.2910988 C21.7305312,35.928034 21.3464687,35.7179818 20.9691771,35.8196064 C20.5908437,35.9215451 20.3627188,36.2963318 20.4295938,36.6766655 L20.4208437,36.678968 L20.5437604,37.1438668 L20.5467812,37.1431342 C20.5471979,37.1445995 20.5473021,37.1451228 20.5476146,37.14596 C20.6543854,37.5464931 21.0645937,37.7845941 21.4633437,37.6771085 C21.8620937,37.5698322 22.0989687,37.1576819 21.9920937,36.7570442 C21.9918854,36.756207 21.9902187,36.7561023 21.9898021,36.7546371 L21.9913646,36.7542184 L21.8684479,36.2891103 L21.8613646,36.2910988 Z" id="Fill-11" fill="#007F67"></path>
                <path d="M23.9077187,36.2910988 C24.0386562,35.928034 24.4227187,35.7179818 24.7999062,35.8196064 C25.1782396,35.9215451 25.4064687,36.2963318 25.3395937,36.6766655 L25.3482396,36.678968 L25.2254271,37.1438668 L25.2223021,37.1431342 C25.2218854,37.1445995 25.2217812,37.1451228 25.2215729,37.14596 C25.1146979,37.5464931 24.7044896,37.7845941 24.3057396,37.6771085 C23.9069896,37.5698322 23.6702187,37.1576819 23.7769896,36.7570442 C23.7771979,36.756207 23.7789687,36.7561023 23.7793854,36.7546371 L23.7778229,36.7542184 L23.9006354,36.2891103 L23.9077187,36.2910988 Z" id="Fill-13" fill="#007F67"></path>
                <path d="M26.0028542,43.8910956 C26.0028542,45.621436 24.6068125,47.0240867 22.884625,47.0240867 C21.1625417,47.0240867 19.7663958,45.621436 19.7663958,43.8910956 C19.7663958,42.1608598 21.1625417,42.2476228 22.884625,42.2476228 C24.6068125,42.2476228 26.0028542,42.1608598 26.0028542,43.8910956" id="Fill-15" fill="#2B3B47"></path>
            </g>
        </g>
    </g>
</svg>