<?xml version="1.0" encoding="UTF-8" standalone="no"?>
<svg width="46px" height="48px" viewBox="0 0 46 48" version="1.1" xmlns="http://www.w3.org/2000/svg" xmlns:xlink="http://www.w3.org/1999/xlink">
    <!-- Generator: Sketch 45.2 (43514) - http://www.bohemiancoding.com/sketch -->
    <title>icon-Twitter</title>
    <desc>Created with Sketch.</desc>
    <defs></defs>
    <g id="Page-1" stroke="none" stroke-width="1" fill="none" fill-rule="evenodd" fill-opacity="0.864073822">
        <g id="inhuman-menu" transform="translate(-127.000000, -717.000000)" fill="#000000">
            <path d="M167.954825,717 L131.236706,717 C128.896838,717 127,719.014719 127,721.5 L127,760.5 C127,762.985281 128.896838,765 131.236706,765 L167.954825,765 C170.294693,765 172.191531,762.985281 172.191531,760.5 L172.191531,721.5 C172.191531,719.014719 170.294693,717 167.954825,717 Z M160.893648,734.88 L160.893648,735.68 C160.908527,742.097175 157.615432,748.00829 152.312478,751.083224 C147.009525,754.158157 140.547393,753.903639 135.473412,750.42 C135.931214,750.4484 136.390186,750.4484 136.847988,750.42 C139.456458,750.42115 141.989652,749.491406 144.040973,747.78 C141.588673,747.740522 139.424868,746.066864 138.636819,743.6 C138.996453,743.676713 139.362145,743.716894 139.728948,743.72 C140.213383,743.719188 140.695241,743.645111 141.160013,743.5 C138.44582,742.935657 136.469759,740.437009 136.414902,737.5 L136.414902,737.5 C136.414902,737.96 138.184904,738.24 139.145224,738.26 C136.616945,736.432722 135.86595,732.830077 137.431712,730.04 C140.37775,733.889785 144.723744,736.230537 149.388638,736.48 C148.782263,733.760517 149.975513,730.948206 152.295315,729.629397 C154.615117,728.310587 157.480125,728.815774 159.274285,730.86 C160.602163,730.596352 161.876576,730.088747 163.040246,729.36 C162.607937,730.782579 161.704822,731.99051 160.498222,732.76 C161.648164,732.619023 162.771651,732.295414 163.831098,731.8 C163.030124,733.002182 162.035732,734.044831 160.893648,734.88 L160.893648,734.88 Z" id="icon-Twitter"></path>
        </g>
    </g>
</svg>