<?xml version="1.0" encoding="UTF-8" standalone="no"?>
<svg width="16px" height="16px" viewBox="0 0 16 16" version="1.1" xmlns="http://www.w3.org/2000/svg" xmlns:xlink="http://www.w3.org/1999/xlink">
    <!-- Generator: Sketch 45.2 (43514) - http://www.bohemiancoding.com/sketch -->
    <title>Group</title>
    <desc>Created with Sketch.</desc>
    <defs></defs>
    <g id="Page-1" stroke="none" stroke-width="1" fill="none" fill-rule="evenodd">
        <g id="inhuman-index" transform="translate(-70.000000, -103.000000)" fill="#FFFFFF">
            <g id="Group" transform="translate(70.000000, 103.000000)">
                <path d="M14.6622824,2.64506304 L1.33293477,2.64506304 C0.595821841,2.64506304 0,2.05389145 0,1.32253152 C0,0.591171589 0.595821841,0 1.33293477,0 L14.6622824,0 C15.3993954,0 15.9952172,0.591171589 15.9952172,1.32253152 C15.9952172,2.05389145 15.3993954,2.64506304 14.6622824,2.64506304" id="Fill-1"></path>
                <path d="M14.6622824,9.25772064 L1.33293477,9.25772064 C0.595821841,9.25772064 0,8.66654905 0,7.93518912 C0,7.20382919 0.595821841,6.6126576 1.33293477,6.6126576 L14.6622824,6.6126576 C15.3993954,6.6126576 15.9952172,7.20382919 15.9952172,7.93518912 C15.9952172,8.66654905 15.3993954,9.25772064 14.6622824,9.25772064" id="Fill-3"></path>
                <path d="M1.33293477,15.8703782 C0.595821841,15.8703782 0,15.2792067 0,14.5478467 C0,13.8164868 0.595821841,13.2253152 1.33293477,13.2253152 L14.6622824,13.2253152 C15.3993954,13.2253152 15.9952172,13.8164868 15.9952172,14.5478467 C15.9952172,15.2792067 15.3993954,15.8703782 14.6622824,15.8703782 L1.33293477,15.8703782 Z" id="Fill-5"></path>
            </g>
        </g>
    </g>
</svg>