<?xml version="1.0" encoding="UTF-8" standalone="no"?>
<svg width="23px" height="23px" viewBox="0 0 23 23" version="1.1" xmlns="http://www.w3.org/2000/svg" xmlns:xlink="http://www.w3.org/1999/xlink">
    <!-- Generator: Sketch 45.2 (43514) - http://www.bohemiancoding.com/sketch -->
    <title>Fill 1</title>
    <desc>Created with Sketch.</desc>
    <defs></defs>
    <g id="Page-1" stroke="none" stroke-width="1" fill="none" fill-rule="evenodd" fill-opacity="0.864073822">
        <g id="inhuman-menu" transform="translate(-63.000000, -103.000000)" fill="#000000">
            <path d="M76.8583995,114.304663 L85.110367,106.078722 C85.7926818,105.372286 85.7736626,104.246257 85.0628189,103.565898 C84.3733719,102.899763 83.2773889,102.899763 82.5855645,103.565898 L74.3359743,111.789469 L66.0863842,103.565898 C65.4159564,102.84761 64.2866897,102.80731 63.5687139,103.478186 C62.8459832,104.146692 62.8079448,105.270351 63.4783725,105.99101 C63.5069014,106.019457 63.5354302,106.050275 63.5687139,106.078722 L71.8135492,114.304663 L63.5687139,122.530604 C62.8459832,123.19911 62.8079448,124.325139 63.4783725,125.043427 C64.1488003,125.761716 65.278067,125.802016 65.9984203,125.131139 C66.0293265,125.105063 66.0602327,125.074245 66.0863842,125.043427 L74.3359743,116.819857 L82.5855645,125.045798 C83.2964081,125.726157 84.4256748,125.709563 85.1079896,125.000757 C85.77604,124.313286 85.7736626,123.220445 85.1079896,122.530604 L76.8583995,114.304663 Z" id="Fill-1"></path>
        </g>
    </g>
</svg>